<svg width="695" height="615" viewBox="0 0 695 615" fill="none" xmlns="http://www.w3.org/2000/svg">
<circle cx="289.848" cy="213.849" r="212.849" fill="#547980"/>
<circle cx="289.848" cy="213.849" r="159.637" fill="#45ADA8"/>
<ellipse cx="291.485" cy="209.756" rx="104.787" ry="102.331" fill="#9DE0AD"/>
<path d="M291.485 435.704L293.941 1.00026" stroke="#594F4F" stroke-width="18"/>
<path d="M8.05674 478.075L16.7749 478.176L16.0529 540.328L15.1886 550.163L7.22043 550.07L8.05674 478.075ZM50.5014 524.79L50.4899 525.774C50.4471 529.462 49.9699 532.878 49.0583 536.024C48.147 539.139 46.8343 541.842 45.1201 544.135C43.4058 546.428 41.3226 548.201 38.8704 549.453C36.4181 550.706 33.614 551.314 30.458 551.278C27.2394 551.24 24.4179 550.661 21.9932 549.539C19.6002 548.386 17.5878 546.753 15.956 544.64C14.3242 542.527 13.0255 539.981 12.0601 537.001C11.1259 534.021 10.4929 530.669 10.1611 526.947L10.2112 522.634C10.6297 518.889 11.3406 515.538 12.3437 512.58C13.3782 509.623 14.7356 507.108 16.416 505.033C18.0969 502.928 20.1467 501.342 22.5655 500.276C24.9846 499.179 27.7878 498.649 30.9751 498.686C34.1624 498.723 36.9831 499.381 39.4371 500.66C41.8916 501.907 43.9336 503.681 45.5632 505.981C47.2241 508.282 48.4735 511.031 49.3115 514.229C50.1497 517.395 50.5464 520.915 50.5014 524.79ZM41.7718 525.673L41.7832 524.689C41.8126 522.158 41.6058 519.78 41.1629 517.556C40.7203 515.301 39.9932 513.323 38.9816 511.624C37.9704 509.893 36.6267 508.534 34.9506 507.546C33.2748 506.526 31.2027 506.002 28.7341 505.973C26.5467 505.948 24.6363 506.301 23.0027 507.032C21.4003 507.763 20.0292 508.763 18.8894 510.031C17.75 511.268 16.8115 512.695 16.0739 514.311C15.3679 515.897 14.8331 517.547 14.4694 519.262L14.3382 530.558C14.8127 532.751 15.6007 534.87 16.702 536.914C17.835 538.927 19.347 540.585 21.2383 541.889C23.1608 543.192 25.5438 543.861 28.3874 543.894C30.7309 543.921 32.7363 543.476 34.4033 542.557C36.1019 541.608 37.4766 540.296 38.5274 538.621C39.6094 536.946 40.4133 535.002 40.9391 532.789C41.4648 530.576 41.7424 528.204 41.7718 525.673ZM71.4275 478.811L70.5912 550.806L61.873 550.705L62.7093 478.71L71.4275 478.811ZM94.5224 500.362L93.9333 551.077L85.2152 550.976L85.8043 500.261L94.5224 500.362ZM85.3043 486.801C85.3207 485.395 85.7563 484.212 86.6113 483.253C87.4975 482.295 88.7842 481.826 90.4716 481.845C92.1278 481.864 93.3877 482.363 94.2514 483.342C95.1463 484.321 95.5856 485.514 95.5693 486.92C95.5537 488.264 95.0871 489.415 94.1697 490.373C93.2839 491.3 92.0129 491.754 90.3567 491.735C88.6694 491.715 87.3936 491.232 86.5296 490.284C85.6971 489.306 85.2887 488.145 85.3043 486.801ZM116.951 510.701L116.479 551.339L107.761 551.238L108.35 500.523L116.599 500.619L116.951 510.701ZM115.014 524.039L110.985 523.852C111.057 520.384 111.547 517.186 112.456 514.259C113.365 511.301 114.692 508.738 116.436 506.57C118.18 504.403 120.34 502.74 122.916 501.583C125.493 500.394 128.469 499.819 131.843 499.858C134.218 499.886 136.402 500.255 138.393 500.966C140.386 501.645 142.108 502.712 143.56 504.166C145.012 505.621 146.131 507.478 146.917 509.737C147.703 511.996 148.078 514.72 148.041 517.907L147.648 551.701L138.977 551.601L139.365 518.228C139.396 515.572 138.967 513.442 138.08 511.838C137.223 510.234 135.987 509.063 134.37 508.326C132.754 507.557 130.852 507.16 128.665 507.134C126.103 507.104 123.957 507.533 122.228 508.419C120.498 509.305 119.109 510.539 118.059 512.121C117.01 513.702 116.238 515.522 115.746 517.579C115.285 519.605 115.041 521.758 115.014 524.039ZM147.927 519.64L142.094 521.354C142.158 518.573 142.642 515.907 143.547 513.354C144.483 510.803 145.806 508.537 147.517 506.556C149.258 504.576 151.386 503.023 153.899 501.896C156.413 500.737 159.279 500.177 162.497 500.214C165.216 500.246 167.618 500.633 169.703 501.376C171.82 502.119 173.588 503.249 175.008 504.766C176.46 506.252 177.547 508.155 178.27 510.476C178.993 512.797 179.336 515.551 179.299 518.739L178.912 552.065L170.194 551.963L170.582 518.544C170.615 515.7 170.188 513.492 169.3 511.919C168.443 510.315 167.206 509.191 165.588 508.548C164.002 507.873 162.1 507.523 159.881 507.497C157.975 507.475 156.284 507.783 154.808 508.422C153.332 509.061 152.087 509.953 151.073 511.098C150.06 512.211 149.28 513.499 148.732 514.962C148.214 516.424 147.946 517.984 147.927 519.64ZM213.071 553.399C209.54 553.358 206.344 552.727 203.483 551.506C200.653 550.255 198.22 548.523 196.183 546.312C194.177 544.101 192.645 541.489 191.586 538.477C190.527 535.464 190.019 532.177 190.06 528.614L190.083 526.646C190.131 522.521 190.783 518.857 192.039 515.652C193.295 512.416 194.983 509.686 197.103 507.46C199.223 505.235 201.618 503.559 204.287 502.434C206.957 501.309 209.713 500.763 212.557 500.796C216.181 500.838 219.299 501.499 221.909 502.779C224.551 504.06 226.702 505.835 228.363 508.105C230.025 510.343 231.244 512.982 232.022 516.023C232.799 519.032 233.167 522.318 233.126 525.88L233.081 529.77L195.208 529.33L195.291 522.253L224.492 522.592L224.499 521.936C224.401 519.685 223.957 517.492 223.169 515.357C222.413 513.224 221.183 511.459 219.481 510.064C217.778 508.669 215.442 507.955 212.474 507.92C210.505 507.897 208.688 508.298 207.022 509.123C205.356 509.916 203.921 511.118 202.714 512.729C201.508 514.34 200.563 516.314 199.88 518.65C199.196 520.986 198.837 523.685 198.801 526.747L198.778 528.716C198.75 531.122 199.052 533.391 199.684 535.524C200.347 537.625 201.31 539.48 202.572 541.089C203.866 542.698 205.43 543.966 207.263 544.893C209.127 545.821 211.247 546.299 213.622 546.327C216.684 546.362 219.285 545.767 221.424 544.542C223.563 543.317 225.442 541.667 227.06 539.592L232.261 543.824C231.148 545.468 229.74 547.03 228.035 548.51C226.33 549.99 224.238 551.185 221.758 552.094C219.31 553.003 216.414 553.438 213.071 553.399ZM256.593 547.717L271.229 502.415L280.51 502.523L259.487 560.829C259.004 562.074 258.364 563.41 257.566 564.838C256.799 566.298 255.814 567.678 254.611 568.976C253.409 570.275 251.959 571.321 250.262 572.113C248.596 572.938 246.607 573.337 244.295 573.31C243.607 573.302 242.733 573.198 241.673 572.998C240.613 572.798 239.865 572.633 239.429 572.503L239.463 565.472C239.713 565.506 240.103 565.542 240.634 565.579C241.196 565.648 241.586 565.684 241.805 565.687C243.773 565.71 245.448 565.463 246.829 564.948C248.21 564.464 249.376 563.618 250.328 562.41C251.31 561.234 252.157 559.603 252.869 557.518L256.593 547.717ZM246.762 502.131L259.476 541.656L261.619 550.822L255.349 553.937L237.294 502.021L246.762 502.131ZM314.542 526.873L296.309 526.661L296.394 519.302L314.627 519.514C318.158 519.555 321.024 519.026 323.224 517.926C325.425 516.827 327.037 515.283 328.06 513.294C329.114 511.307 329.656 509.031 329.686 506.469C329.713 504.125 329.223 501.917 328.216 499.842C327.24 497.768 325.666 496.094 323.493 494.818C321.32 493.512 318.469 492.838 314.938 492.797L298.814 492.61L298.107 553.449L289.061 553.344L289.854 485.099L315.024 485.391C320.18 485.451 324.528 486.392 328.07 488.215C331.611 490.037 334.286 492.537 336.093 495.715C337.9 498.861 338.78 502.449 338.733 506.48C338.683 510.855 337.717 514.579 335.838 517.651C333.958 520.723 331.228 523.051 327.647 524.634C324.066 526.186 319.698 526.933 314.542 526.873ZM379.472 542.675L379.925 503.677L388.643 503.779L388.054 554.494L379.758 554.398L379.472 542.675ZM381.237 532.007L384.847 531.955C384.808 535.33 384.412 538.451 383.66 541.317C382.94 544.153 381.786 546.608 380.199 548.684C378.612 550.759 376.547 552.376 374.002 553.534C371.457 554.661 368.373 555.203 364.748 555.161C362.279 555.132 360.018 554.747 357.964 554.004C355.941 553.262 354.204 552.132 352.753 550.615C351.302 549.098 350.184 547.132 349.399 544.716C348.646 542.301 348.289 539.406 348.328 536.031L348.708 503.315L357.38 503.416L356.999 536.226C356.972 538.507 357.2 540.4 357.683 541.906C358.197 543.381 358.886 544.561 359.751 545.446C360.647 546.3 361.64 546.905 362.73 547.262C363.851 547.619 365.005 547.804 366.193 547.818C369.88 547.861 372.81 547.191 374.982 545.81C377.155 544.398 378.724 542.494 379.689 540.099C380.686 537.673 381.202 534.976 381.237 532.007ZM410.407 514.86L409.943 554.748L401.272 554.648L401.861 503.932L410.064 504.028L410.407 514.86ZM408.198 527.445L404.59 527.262C404.662 523.794 405.215 520.597 406.249 517.672C407.283 514.715 408.719 512.153 410.557 509.987C412.395 507.82 414.57 506.158 417.084 505C419.629 503.81 422.433 503.234 425.495 503.269C427.995 503.298 430.241 503.668 432.233 504.379C434.225 505.058 435.916 506.14 437.305 507.625C438.725 509.111 439.797 511.03 440.52 513.382C441.243 515.703 441.585 518.535 441.546 521.879L441.16 555.111L432.442 555.01L432.829 521.684C432.86 519.028 432.494 516.898 431.731 515.296C430.969 513.662 429.842 512.477 428.35 511.74C426.859 510.973 425.02 510.577 422.832 510.551C420.676 510.526 418.703 510.956 416.911 511.842C415.15 512.728 413.62 513.96 412.321 515.539C411.052 517.118 410.047 518.935 409.304 520.989C408.593 523.012 408.224 525.164 408.198 527.445ZM474.698 549.313C476.761 549.337 478.672 548.937 480.431 548.113C482.191 547.29 483.642 546.151 484.784 544.695C485.926 543.208 486.587 541.513 486.765 539.608L495.014 539.704C494.823 542.702 493.775 545.487 491.87 548.059C489.997 550.6 487.551 552.65 484.533 554.208C481.515 555.736 478.209 556.479 474.616 556.437C470.803 556.393 467.483 555.682 464.655 554.306C461.859 552.929 459.536 551.058 457.689 548.693C455.872 546.328 454.513 543.625 453.611 540.583C452.74 537.51 452.325 534.27 452.364 530.864L452.387 528.896C452.427 525.49 452.917 522.277 453.858 519.256C454.831 516.205 456.253 513.518 458.124 511.196C460.026 508.874 462.391 507.057 465.219 505.746C468.078 504.436 471.414 503.803 475.226 503.847C479.195 503.893 482.654 504.746 485.604 506.405C488.554 508.033 490.856 510.248 492.511 513.048C494.198 515.818 495.099 518.954 495.215 522.455L486.965 522.359C486.833 520.264 486.262 518.367 485.25 516.667C484.27 514.968 482.91 513.609 481.172 512.588C479.465 511.537 477.456 510.998 475.144 510.971C472.488 510.941 470.247 511.446 468.422 512.487C466.629 513.498 465.191 514.887 464.108 516.656C463.057 518.394 462.284 520.338 461.79 522.489C461.328 524.609 461.084 526.778 461.058 528.997L461.035 530.965C461.01 533.184 461.203 535.374 461.615 537.535C462.028 539.696 462.739 541.658 463.75 543.419C464.792 545.182 466.198 546.604 467.967 547.687C469.767 548.74 472.011 549.281 474.698 549.313ZM514.085 483.953L513.249 555.948L504.577 555.848L505.414 483.852L514.085 483.953ZM511.503 528.645L507.896 528.462C507.967 524.994 508.52 521.797 509.554 518.872C510.589 515.915 512.025 513.353 513.862 511.187C515.7 509.02 517.876 507.358 520.39 506.2C522.935 505.01 525.739 504.434 528.801 504.469C531.301 504.498 533.547 504.868 535.538 505.579C537.531 506.258 539.221 507.34 540.61 508.825C542.031 510.311 543.102 512.23 543.825 514.582C544.548 516.903 544.89 519.735 544.851 523.079L544.465 556.311L535.747 556.21L536.134 522.884C536.165 520.228 535.799 518.098 535.037 516.496C534.274 514.862 533.147 513.677 531.656 512.94C530.165 512.173 528.325 511.777 526.138 511.751C523.982 511.726 522.008 512.156 520.216 513.042C518.456 513.928 516.926 515.16 515.626 516.739C514.358 518.318 513.352 520.135 512.61 522.189C511.899 524.212 511.53 526.364 511.503 528.645Z" fill="#E5FCC2"/>
</svg>
