<svg width="1173" height="458" viewBox="0 0 1173 458" fill="none" xmlns="http://www.w3.org/2000/svg">
<ellipse cx="222.173" cy="234.004" rx="217.608" ry="217.281" transform="rotate(0.659481 222.173 234.004)" fill="#E5FCC2"/>
<circle cx="222.834" cy="234.849" r="212.849" transform="rotate(-0.191444 222.834 234.849)" fill="#547980"/>
<circle cx="222.834" cy="234.849" r="159.637" transform="rotate(-0.191444 222.834 234.849)" fill="#45ADA8"/>
<ellipse cx="224.458" cy="230.751" rx="104.787" ry="102.331" transform="rotate(-0.191444 224.458 230.751)" fill="#9DE0AD"/>
<path d="M225.213 456.697L223.999 1.00029" stroke="#547980" stroke-width="18"/>
<path d="M486.056 196.075L494.775 196.176L494.053 258.328L493.188 268.163L485.22 268.07L486.056 196.075ZM528.501 242.79L528.49 243.774C528.447 247.462 527.97 250.878 527.058 254.024C526.147 257.139 524.834 259.842 523.12 262.135C521.406 264.428 519.322 266.201 516.87 267.453C514.418 268.706 511.614 269.314 508.458 269.278C505.239 269.24 502.418 268.661 499.993 267.539C497.6 266.386 495.588 264.753 493.956 262.64C492.324 260.527 491.025 257.981 490.06 255.001C489.126 252.021 488.493 248.669 488.161 244.947L488.211 240.634C488.629 236.889 489.34 233.538 490.343 230.58C491.378 227.623 492.735 225.108 494.416 223.033C496.097 220.928 498.146 219.342 500.565 218.276C502.984 217.179 505.788 216.649 508.975 216.686C512.162 216.723 514.983 217.381 517.437 218.66C519.891 219.907 521.933 221.681 523.563 223.981C525.224 226.282 526.473 229.031 527.311 232.229C528.149 235.395 528.546 238.915 528.501 242.79ZM519.772 243.673L519.783 242.689C519.812 240.158 519.606 237.78 519.163 235.556C518.72 233.301 517.993 231.323 516.981 229.624C515.97 227.893 514.627 226.534 512.95 225.546C511.275 224.526 509.202 224.002 506.734 223.973C504.546 223.948 502.636 224.301 501.002 225.032C499.4 225.763 498.029 226.763 496.889 228.031C495.75 229.268 494.811 230.695 494.074 232.311C493.368 233.897 492.833 235.547 492.469 237.262L492.338 248.558C492.812 250.751 493.6 252.87 494.702 254.914C495.835 256.927 497.347 258.585 499.238 259.889C501.161 261.192 503.544 261.861 506.387 261.894C508.731 261.921 510.736 261.475 512.403 260.557C514.102 259.608 515.476 258.296 516.527 256.621C517.609 254.946 518.413 253.002 518.939 250.789C519.465 248.576 519.742 246.204 519.772 243.673ZM549.427 196.811L548.591 268.806L539.873 268.705L540.709 196.71L549.427 196.811ZM572.522 218.362L571.933 269.077L563.215 268.976L563.804 218.261L572.522 218.362ZM563.304 204.801C563.32 203.395 563.756 202.212 564.611 201.253C565.497 200.295 566.784 199.825 568.471 199.845C570.128 199.864 571.387 200.363 572.251 201.342C573.146 202.321 573.585 203.514 573.569 204.92C573.553 206.264 573.087 207.415 572.169 208.373C571.284 209.3 570.013 209.754 568.357 209.735C566.669 209.715 565.393 209.232 564.529 208.284C563.697 207.306 563.288 206.145 563.304 204.801ZM594.95 228.701L594.478 269.339L585.76 269.238L586.349 218.523L594.599 218.619L594.95 228.701ZM593.014 242.039L588.985 241.852C589.056 238.384 589.547 235.186 590.456 232.259C591.365 229.3 592.692 226.738 594.436 224.57C596.18 222.403 598.34 220.74 600.916 219.583C603.493 218.394 606.468 217.819 609.843 217.858C612.218 217.886 614.401 218.255 616.393 218.965C618.385 219.645 620.107 220.712 621.559 222.166C623.011 223.621 624.131 225.478 624.917 227.737C625.703 229.996 626.078 232.72 626.041 235.907L625.648 269.701L616.977 269.601L617.365 236.228C617.395 233.572 616.967 231.442 616.079 229.838C615.223 228.234 613.986 227.063 612.37 226.326C610.754 225.557 608.852 225.16 606.665 225.134C604.102 225.104 601.957 225.533 600.227 226.419C598.498 227.305 597.109 228.539 596.059 230.121C595.009 231.702 594.238 233.522 593.746 235.579C593.284 237.605 593.041 239.758 593.014 242.039ZM625.927 237.64L620.094 239.354C620.158 236.573 620.642 233.906 621.546 231.354C622.482 228.803 623.806 226.536 625.516 224.556C627.258 222.576 629.386 221.023 631.899 219.896C634.413 218.737 637.279 218.177 640.497 218.214C643.216 218.246 645.618 218.633 647.703 219.376C649.82 220.119 651.588 221.249 653.008 222.766C654.459 224.252 655.547 226.155 656.27 228.476C656.993 230.797 657.336 233.551 657.299 236.739L656.912 270.065L648.194 269.963L648.582 236.544C648.615 233.7 648.187 231.492 647.299 229.919C646.443 228.315 645.206 227.191 643.588 226.548C642.002 225.873 640.1 225.523 637.881 225.497C635.975 225.475 634.284 225.783 632.808 226.422C631.331 227.061 630.087 227.953 629.073 229.098C628.06 230.211 627.28 231.499 626.731 232.962C626.214 234.424 625.946 235.984 625.927 237.64ZM691.07 271.399C687.539 271.358 684.343 270.727 681.482 269.506C678.653 268.254 676.22 266.523 674.183 264.312C672.177 262.101 670.645 259.489 669.586 256.477C668.527 253.464 668.018 250.177 668.06 246.614L668.083 244.646C668.131 240.521 668.783 236.856 670.039 233.652C671.295 230.416 672.983 227.686 675.103 225.46C677.223 223.235 679.617 221.559 682.287 220.434C684.956 219.309 687.713 218.763 690.556 218.796C694.181 218.838 697.299 219.499 699.909 220.779C702.551 222.06 704.702 223.835 706.363 226.105C708.025 228.343 709.244 230.982 710.021 234.023C710.799 237.032 711.167 240.318 711.126 243.88L711.081 247.77L673.208 247.33L673.29 240.253L702.492 240.592L702.499 239.936C702.4 237.685 701.957 235.492 701.169 233.357C700.413 231.223 699.183 229.459 697.48 228.064C695.778 226.669 693.442 225.955 690.474 225.92C688.505 225.897 686.688 226.298 685.022 227.123C683.356 227.916 681.92 229.118 680.714 230.729C679.508 232.34 678.563 234.314 677.879 236.65C677.196 238.986 676.836 241.685 676.801 244.747L676.778 246.716C676.75 249.122 677.052 251.391 677.683 253.523C678.347 255.625 679.309 257.48 680.572 259.089C681.866 260.698 683.429 261.966 685.263 262.893C687.127 263.821 689.247 264.299 691.621 264.327C694.684 264.362 697.284 263.767 699.424 262.542C701.563 261.317 703.442 259.667 705.06 257.592L710.261 261.824C709.148 263.468 707.739 265.03 706.034 266.51C704.33 267.99 702.238 269.185 699.758 270.094C697.31 271.003 694.414 271.438 691.07 271.399ZM734.592 265.717L749.229 220.415L758.51 220.523L737.487 278.829C737.004 280.074 736.363 281.41 735.566 282.838C734.799 284.298 733.814 285.678 732.611 286.976C731.408 288.275 729.959 289.321 728.262 290.113C726.596 290.938 724.607 291.337 722.294 291.31C721.607 291.302 720.733 291.198 719.673 290.998C718.613 290.798 717.864 290.633 717.428 290.503L717.463 283.472C717.713 283.506 718.103 283.542 718.634 283.579C719.196 283.648 719.586 283.684 719.805 283.687C721.773 283.71 723.448 283.463 724.829 282.948C726.21 282.464 727.376 281.618 728.328 280.41C729.31 279.234 730.157 277.603 730.869 275.518L734.592 265.717ZM724.762 220.131L737.476 259.656L739.619 268.822L733.348 271.937L715.294 220.021L724.762 220.131ZM792.542 244.873L774.308 244.661L774.394 237.302L792.627 237.514C796.158 237.555 799.024 237.026 801.224 235.926C803.425 234.826 805.036 233.283 806.06 231.294C807.114 229.306 807.656 227.031 807.686 224.469C807.713 222.125 807.223 219.916 806.216 217.842C805.24 215.768 803.665 214.094 801.493 212.818C799.32 211.512 796.468 210.838 792.937 210.797L776.814 210.61L776.107 271.449L767.061 271.344L767.853 203.099L793.023 203.391C798.179 203.451 802.528 204.392 806.07 206.215C809.611 208.037 812.286 210.537 814.092 213.715C815.9 216.861 816.78 220.449 816.733 224.48C816.682 228.855 815.717 232.578 813.838 235.651C811.958 238.723 809.228 241.051 805.647 242.634C802.066 244.186 797.698 244.933 792.542 244.873ZM857.472 260.675L857.925 221.677L866.643 221.779L866.054 272.494L857.758 272.398L857.472 260.675ZM859.236 250.007L862.847 249.955C862.807 253.33 862.412 256.451 861.66 259.317C860.939 262.153 859.786 264.608 858.199 266.684C856.612 268.759 854.546 270.376 852.002 271.534C849.457 272.661 846.372 273.203 842.748 273.161C840.279 273.132 838.018 272.746 835.964 272.004C833.941 271.262 832.204 270.132 830.753 268.615C829.302 267.098 828.184 265.132 827.399 262.716C826.646 260.301 826.289 257.406 826.328 254.031L826.708 221.315L835.379 221.416L834.998 254.226C834.972 256.507 835.2 258.4 835.682 259.906C836.197 261.381 836.886 262.561 837.751 263.446C838.647 264.3 839.64 264.905 840.73 265.262C841.851 265.619 843.005 265.804 844.192 265.818C847.88 265.861 850.81 265.191 852.982 263.81C855.155 262.398 856.724 260.494 857.689 258.099C858.686 255.673 859.202 252.976 859.236 250.007ZM888.406 232.86L887.943 272.748L879.272 272.648L879.861 221.932L888.063 222.027L888.406 232.86ZM886.198 245.445L882.59 245.262C882.662 241.794 883.214 238.597 884.248 235.672C885.283 232.715 886.719 230.153 888.557 227.987C890.395 225.82 892.57 224.158 895.084 223C897.629 221.81 900.433 221.234 903.495 221.269C905.995 221.298 908.241 221.668 910.233 222.379C912.225 223.058 913.916 224.14 915.305 225.625C916.725 227.111 917.797 229.03 918.519 231.382C919.242 233.703 919.585 236.535 919.546 239.879L919.16 273.111L910.441 273.01L910.829 239.684C910.859 237.028 910.494 234.898 909.731 233.296C908.969 231.662 907.842 230.477 906.35 229.74C904.859 228.973 903.02 228.577 900.832 228.551C898.676 228.526 896.702 228.956 894.911 229.842C893.15 230.728 891.62 231.96 890.32 233.539C889.052 235.118 888.047 236.935 887.304 238.989C886.593 241.012 886.224 243.164 886.198 245.445ZM952.698 267.313C954.76 267.336 956.671 266.937 958.431 266.113C960.191 265.29 961.642 264.151 962.784 262.695C963.926 261.208 964.586 259.513 964.765 257.608L973.014 257.704C972.823 260.702 971.775 263.487 969.87 266.059C967.997 268.6 965.551 270.65 962.532 272.208C959.514 273.736 956.209 274.479 952.615 274.437C948.803 274.393 945.483 273.682 942.655 272.306C939.858 270.929 937.536 269.058 935.688 266.693C933.872 264.328 932.513 261.625 931.61 258.583C930.74 255.51 930.324 252.27 930.364 248.864L930.387 246.896C930.426 243.49 930.917 240.276 931.858 237.256C932.831 234.205 934.253 231.518 936.124 229.196C938.026 226.874 940.391 225.057 943.219 223.746C946.078 222.436 949.414 221.803 953.226 221.847C957.195 221.893 960.654 222.746 963.603 224.405C966.553 226.033 968.856 228.248 970.511 231.048C972.198 233.818 973.099 236.954 973.214 240.455L964.965 240.359C964.833 238.264 964.261 236.367 963.25 234.667C962.269 232.968 960.91 231.609 959.172 230.588C957.465 229.537 955.456 228.998 953.143 228.971C950.487 228.941 948.247 229.446 946.422 230.487C944.629 231.498 943.191 232.887 942.108 234.656C941.056 236.394 940.284 238.338 939.79 240.489C939.328 242.609 939.084 244.778 939.058 246.996L939.035 248.965C939.009 251.184 939.203 253.374 939.615 255.535C940.028 257.696 940.739 259.657 941.75 261.419C942.792 263.182 944.198 264.604 945.966 265.687C947.767 266.74 950.011 267.281 952.698 267.313ZM992.085 201.953L991.249 273.948L982.577 273.848L983.414 201.852L992.085 201.953ZM989.503 246.645L985.896 246.462C985.967 242.994 986.52 239.797 987.554 236.872C988.588 233.915 990.024 231.353 991.862 229.187C993.7 227.02 995.876 225.358 998.389 224.2C1000.93 223.01 1003.74 222.434 1006.8 222.469C1009.3 222.498 1011.55 222.868 1013.54 223.579C1015.53 224.258 1017.22 225.34 1018.61 226.825C1020.03 228.311 1021.1 230.23 1021.82 232.582C1022.55 234.903 1022.89 237.735 1022.85 241.079L1022.47 274.311L1013.75 274.21L1014.13 240.884C1014.16 238.228 1013.8 236.098 1013.04 234.496C1012.27 232.862 1011.15 231.677 1009.66 230.94C1008.16 230.173 1006.33 229.777 1004.14 229.751C1001.98 229.726 1000.01 230.156 998.216 231.042C996.456 231.928 994.926 233.16 993.626 234.739C992.358 236.318 991.352 238.135 990.609 240.189C989.898 242.212 989.53 244.364 989.503 246.645Z" fill="#E5FCC2"/>
</svg>
